%TF.GenerationSoftware,KiCad,Pcbnew,10.0.6*%
%TF.CreationDate,2026-09-27T20:45:48+02:00*%
%TF.ProjectId,minitel esp32,6d696e69-7465-46c2-9065-737033322e6b,rev?*%
%TF.SameCoordinates,Original*%
%TF.FileFunction,Plated,1,2,PTH,Mixed*%
%TF.FilePolarity,Positive*%
%FSLAX46Y46*%
G04 Gerber Fmt 4.6, Leading zero omitted, Abs format (unit mm)*
G04 Created by KiCad (PCBNEW 10.0.6) date 2026-09-27 20:45:48*
%MOMM*%
%LPD*%
G01*
G04 APERTURE LIST*
%TA.AperFunction,ComponentDrill*%
%ADD10C,0.200000*%
%TD*%
%TA.AperFunction,ViaDrill*%
%ADD11C,0.300000*%
%TD*%
%TA.AperFunction,ComponentDrill*%
%ADD12C,0.700000*%
%TD*%
%TA.AperFunction,ComponentDrill*%
%ADD13C,0.750000*%
%TD*%
%TA.AperFunction,ComponentDrill*%
%ADD14C,0.800000*%
%TD*%
%TA.AperFunction,ComponentDrill*%
%ADD15C,0.900000*%
%TD*%
%TA.AperFunction,ComponentDrill*%
%ADD16C,1.000000*%
%TD*%
G04 aperture for slot hole*
%TA.AperFunction,ComponentDrill*%
%ADD17C,1.000000*%
%TD*%
%TA.AperFunction,ComponentDrill*%
%ADD18C,1.100000*%
%TD*%
%TA.AperFunction,ComponentDrill*%
%ADD19C,1.400000*%
%TD*%
G04 APERTURE END LIST*
D10*
%TO.C,U3*%
X40130000Y-35812500D03*
X40130000Y-37337500D03*
X40892500Y-35050000D03*
X40892500Y-36575000D03*
X40892500Y-38100000D03*
X41655000Y-35812500D03*
X41655000Y-37337500D03*
X42417500Y-35050000D03*
X42417500Y-36575000D03*
X42417500Y-38100000D03*
X43180000Y-35812500D03*
X43180000Y-37337500D03*
%TD*%
D11*
X36576000Y-42672000D03*
X46482000Y-29464000D03*
X52832000Y-56642000D03*
X58420000Y-55118000D03*
X59690000Y-30734000D03*
X60706000Y-52070000D03*
D12*
%TO.C,R3*%
X37592000Y-47752000D03*
X37592000Y-55372000D03*
%TO.C,R2*%
X40894000Y-47752000D03*
X40894000Y-55372000D03*
%TO.C,R1*%
X44196000Y-47752000D03*
X44196000Y-55372000D03*
%TO.C,R4*%
X47498000Y-47752000D03*
X47498000Y-55372000D03*
%TO.C,R5*%
X50800000Y-47752000D03*
X50800000Y-55372000D03*
%TO.C,R6*%
X61214000Y-39624000D03*
X61214000Y-47244000D03*
D13*
%TO.C,Q1*%
X55880000Y-50800000D03*
X57150000Y-50800000D03*
X58420000Y-50800000D03*
D14*
%TO.C,C1*%
X38650000Y-58500000D03*
X38650000Y-63500000D03*
%TO.C,C2*%
X42700000Y-58500000D03*
X42700000Y-63500000D03*
%TO.C,C3*%
X46750000Y-58500000D03*
X46750000Y-63500000D03*
%TO.C,C4*%
X50800000Y-58500000D03*
X50800000Y-63500000D03*
%TO.C,Minitel   Ext*%
X58420000Y-60960000D03*
X60960000Y-60960000D03*
X63500000Y-60960000D03*
D15*
%TO.C,D1*%
X56388000Y-41910000D03*
X56388000Y-44450000D03*
D16*
%TO.C,J3*%
X37592000Y-22860000D03*
X40132000Y-22860000D03*
X42672000Y-22860000D03*
X45212000Y-22860000D03*
X47752000Y-22860000D03*
%TO.C,J2*%
D17*
X72486000Y-59452000D02*
X72486000Y-61452000D01*
X74486000Y-55752000D02*
X76486000Y-55752000D01*
X78486000Y-59452000D02*
X78486000Y-61452000D01*
D16*
%TO.C,U2*%
X83566000Y-23622000D03*
X83566000Y-26162000D03*
X83566000Y-28702000D03*
D18*
%TO.C,SW1*%
X57000000Y-23440000D03*
X57000000Y-27940000D03*
%TO.C,SW3*%
X57000000Y-32548000D03*
X57000000Y-37048000D03*
%TO.C,SW1*%
X63500000Y-23440000D03*
X63500000Y-27940000D03*
%TO.C,SW3*%
X63500000Y-32548000D03*
X63500000Y-37048000D03*
D19*
%TO.C,J1*%
X71160000Y-38300000D03*
X71160000Y-48300000D03*
X73660000Y-35800000D03*
X73660000Y-43300000D03*
X73660000Y-50800000D03*
X83660000Y-38300000D03*
X83660000Y-48300000D03*
M02*
