%TF.GenerationSoftware,KiCad,Pcbnew,10.0.6*%
%TF.CreationDate,2026-09-27T20:45:52+02:00*%
%TF.ProjectId,minitel esp32,6d696e69-7465-46c2-9065-737033322e6b,rev?*%
%TF.SameCoordinates,Original*%
%TF.FileFunction,Paste,Top*%
%TF.FilePolarity,Positive*%
%FSLAX46Y46*%
G04 Gerber Fmt 4.6, Leading zero omitted, Abs format (unit mm)*
G04 Created by KiCad (PCBNEW 10.0.6) date 2026-09-27 20:45:52*
%MOMM*%
%LPD*%
G01*
G04 APERTURE LIST*
%ADD10R,0.900000X1.500000*%
%ADD11R,1.500000X0.900000*%
%ADD12R,1.050000X1.050000*%
G04 APERTURE END LIST*
D10*
%TO.C,U3*%
X34315000Y-44645000D03*
X35585000Y-44645000D03*
X36855000Y-44645000D03*
X38125000Y-44645000D03*
X39395000Y-44645000D03*
X40665000Y-44645000D03*
X41935000Y-44645000D03*
X43205000Y-44645000D03*
X44475000Y-44645000D03*
X45745000Y-44645000D03*
X47015000Y-44645000D03*
X48285000Y-44645000D03*
X49555000Y-44645000D03*
X50825000Y-44645000D03*
D11*
X52075000Y-41605000D03*
X52075000Y-40335000D03*
X52075000Y-39065000D03*
X52075000Y-37795000D03*
X52075000Y-36525000D03*
X52075000Y-35255000D03*
X52075000Y-33985000D03*
X52075000Y-32715000D03*
X52075000Y-31445000D03*
X52075000Y-30175000D03*
D10*
X50825000Y-27145000D03*
X49555000Y-27145000D03*
X48285000Y-27145000D03*
X47015000Y-27145000D03*
X45745000Y-27145000D03*
X44475000Y-27145000D03*
X43205000Y-27145000D03*
X41935000Y-27145000D03*
X40665000Y-27145000D03*
X39395000Y-27145000D03*
X38125000Y-27145000D03*
X36855000Y-27145000D03*
X35585000Y-27145000D03*
X34315000Y-27145000D03*
D12*
X40130000Y-38100000D03*
X41655000Y-38100000D03*
X43180000Y-38100000D03*
X40130000Y-36575000D03*
X41655000Y-36575000D03*
X43180000Y-36575000D03*
X40130000Y-35050000D03*
X41655000Y-35050000D03*
X43180000Y-35050000D03*
%TD*%
M02*
