%TF.GenerationSoftware,KiCad,Pcbnew,10.0.6*%
%TF.CreationDate,2026-09-27T20:45:52+02:00*%
%TF.ProjectId,minitel esp32,6d696e69-7465-46c2-9065-737033322e6b,rev?*%
%TF.SameCoordinates,Original*%
%TF.FileFunction,Legend,Bot*%
%TF.FilePolarity,Positive*%
%FSLAX46Y46*%
G04 Gerber Fmt 4.6, Leading zero omitted, Abs format (unit mm)*
G04 Created by KiCad (PCBNEW 10.0.6) date 2026-09-27 20:45:52*
%MOMM*%
%LPD*%
G01*
G04 APERTURE LIST*
%ADD10C,0.150000*%
G04 APERTURE END LIST*
D10*
X81184094Y-22044819D02*
X81184094Y-21044819D01*
X81184094Y-21044819D02*
X80850761Y-21759104D01*
X80850761Y-21759104D02*
X80517428Y-21044819D01*
X80517428Y-21044819D02*
X80517428Y-22044819D01*
X80041237Y-22044819D02*
X80041237Y-21378152D01*
X80041237Y-21044819D02*
X80088856Y-21092438D01*
X80088856Y-21092438D02*
X80041237Y-21140057D01*
X80041237Y-21140057D02*
X79993618Y-21092438D01*
X79993618Y-21092438D02*
X80041237Y-21044819D01*
X80041237Y-21044819D02*
X80041237Y-21140057D01*
X79565047Y-21378152D02*
X79565047Y-22044819D01*
X79565047Y-21473390D02*
X79517428Y-21425771D01*
X79517428Y-21425771D02*
X79422190Y-21378152D01*
X79422190Y-21378152D02*
X79279333Y-21378152D01*
X79279333Y-21378152D02*
X79184095Y-21425771D01*
X79184095Y-21425771D02*
X79136476Y-21521009D01*
X79136476Y-21521009D02*
X79136476Y-22044819D01*
X78660285Y-22044819D02*
X78660285Y-21378152D01*
X78660285Y-21044819D02*
X78707904Y-21092438D01*
X78707904Y-21092438D02*
X78660285Y-21140057D01*
X78660285Y-21140057D02*
X78612666Y-21092438D01*
X78612666Y-21092438D02*
X78660285Y-21044819D01*
X78660285Y-21044819D02*
X78660285Y-21140057D01*
X78326952Y-21378152D02*
X77946000Y-21378152D01*
X78184095Y-21044819D02*
X78184095Y-21901961D01*
X78184095Y-21901961D02*
X78136476Y-21997200D01*
X78136476Y-21997200D02*
X78041238Y-22044819D01*
X78041238Y-22044819D02*
X77946000Y-22044819D01*
X77231714Y-21997200D02*
X77326952Y-22044819D01*
X77326952Y-22044819D02*
X77517428Y-22044819D01*
X77517428Y-22044819D02*
X77612666Y-21997200D01*
X77612666Y-21997200D02*
X77660285Y-21901961D01*
X77660285Y-21901961D02*
X77660285Y-21521009D01*
X77660285Y-21521009D02*
X77612666Y-21425771D01*
X77612666Y-21425771D02*
X77517428Y-21378152D01*
X77517428Y-21378152D02*
X77326952Y-21378152D01*
X77326952Y-21378152D02*
X77231714Y-21425771D01*
X77231714Y-21425771D02*
X77184095Y-21521009D01*
X77184095Y-21521009D02*
X77184095Y-21616247D01*
X77184095Y-21616247D02*
X77660285Y-21711485D01*
X76612666Y-22044819D02*
X76707904Y-21997200D01*
X76707904Y-21997200D02*
X76755523Y-21901961D01*
X76755523Y-21901961D02*
X76755523Y-21044819D01*
X75565046Y-21044819D02*
X75326951Y-22044819D01*
X75326951Y-22044819D02*
X75136475Y-21330533D01*
X75136475Y-21330533D02*
X74945999Y-22044819D01*
X74945999Y-22044819D02*
X74707904Y-21044819D01*
X74326951Y-22044819D02*
X74326951Y-21378152D01*
X74326951Y-21044819D02*
X74374570Y-21092438D01*
X74374570Y-21092438D02*
X74326951Y-21140057D01*
X74326951Y-21140057D02*
X74279332Y-21092438D01*
X74279332Y-21092438D02*
X74326951Y-21044819D01*
X74326951Y-21044819D02*
X74326951Y-21140057D01*
X73993618Y-21378152D02*
X73612666Y-21378152D01*
X73850761Y-22044819D02*
X73850761Y-21187676D01*
X73850761Y-21187676D02*
X73803142Y-21092438D01*
X73803142Y-21092438D02*
X73707904Y-21044819D01*
X73707904Y-21044819D02*
X73612666Y-21044819D01*
X73279332Y-22044819D02*
X73279332Y-21378152D01*
X73279332Y-21044819D02*
X73326951Y-21092438D01*
X73326951Y-21092438D02*
X73279332Y-21140057D01*
X73279332Y-21140057D02*
X73231713Y-21092438D01*
X73231713Y-21092438D02*
X73279332Y-21044819D01*
X73279332Y-21044819D02*
X73279332Y-21140057D01*
X72184094Y-21044819D02*
X71850761Y-22044819D01*
X71850761Y-22044819D02*
X71517428Y-21044819D01*
X70660285Y-22044819D02*
X71231713Y-22044819D01*
X70945999Y-22044819D02*
X70945999Y-21044819D01*
X70945999Y-21044819D02*
X71041237Y-21187676D01*
X71041237Y-21187676D02*
X71136475Y-21282914D01*
X71136475Y-21282914D02*
X71231713Y-21330533D01*
X84619180Y-60642476D02*
X84619180Y-61118666D01*
X84619180Y-61118666D02*
X84142990Y-61166285D01*
X84142990Y-61166285D02*
X84190609Y-61118666D01*
X84190609Y-61118666D02*
X84238228Y-61023428D01*
X84238228Y-61023428D02*
X84238228Y-60785333D01*
X84238228Y-60785333D02*
X84190609Y-60690095D01*
X84190609Y-60690095D02*
X84142990Y-60642476D01*
X84142990Y-60642476D02*
X84047752Y-60594857D01*
X84047752Y-60594857D02*
X83809657Y-60594857D01*
X83809657Y-60594857D02*
X83714419Y-60642476D01*
X83714419Y-60642476D02*
X83666800Y-60690095D01*
X83666800Y-60690095D02*
X83619180Y-60785333D01*
X83619180Y-60785333D02*
X83619180Y-61023428D01*
X83619180Y-61023428D02*
X83666800Y-61118666D01*
X83666800Y-61118666D02*
X83714419Y-61166285D01*
X84619180Y-60309142D02*
X83619180Y-59975809D01*
X83619180Y-59975809D02*
X84619180Y-59642476D01*
M02*
