%TF.GenerationSoftware,KiCad,Pcbnew,10.0.6*%
%TF.CreationDate,2026-09-27T20:45:52+02:00*%
%TF.ProjectId,minitel esp32,6d696e69-7465-46c2-9065-737033322e6b,rev?*%
%TF.SameCoordinates,Original*%
%TF.FileFunction,Copper,L2,Bot*%
%TF.FilePolarity,Positive*%
%FSLAX46Y46*%
G04 Gerber Fmt 4.6, Leading zero omitted, Abs format (unit mm)*
G04 Created by KiCad (PCBNEW 10.0.6) date 2026-09-27 20:45:52*
%MOMM*%
%LPD*%
G01*
G04 APERTURE LIST*
G04 Aperture macros list*
%AMRoundRect*
0 Rectangle with rounded corners*
0 $1 Rounding radius*
0 $2 $3 $4 $5 $6 $7 $8 $9 X,Y pos of 4 corners*
0 Add a 4 corners polygon primitive as box body*
4,1,4,$2,$3,$4,$5,$6,$7,$8,$9,$2,$3,0*
0 Add four circle primitives for the rounded corners*
1,1,$1+$1,$2,$3*
1,1,$1+$1,$4,$5*
1,1,$1+$1,$6,$7*
1,1,$1+$1,$8,$9*
0 Add four rect primitives between the rounded corners*
20,1,$1+$1,$2,$3,$4,$5,0*
20,1,$1+$1,$4,$5,$6,$7,0*
20,1,$1+$1,$6,$7,$8,$9,0*
20,1,$1+$1,$8,$9,$2,$3,0*%
G04 Aperture macros list end*
%TA.AperFunction,ComponentPad*%
%ADD10C,1.400000*%
%TD*%
%TA.AperFunction,ComponentPad*%
%ADD11R,1.800000X1.800000*%
%TD*%
%TA.AperFunction,ComponentPad*%
%ADD12C,1.800000*%
%TD*%
%TA.AperFunction,ComponentPad*%
%ADD13C,1.600000*%
%TD*%
%TA.AperFunction,ComponentPad*%
%ADD14C,2.500000*%
%TD*%
%TA.AperFunction,ComponentPad*%
%ADD15R,3.500000X3.500000*%
%TD*%
%TA.AperFunction,ComponentPad*%
%ADD16RoundRect,0.750000X0.750000X1.000000X-0.750000X1.000000X-0.750000X-1.000000X0.750000X-1.000000X0*%
%TD*%
%TA.AperFunction,ComponentPad*%
%ADD17RoundRect,0.875000X0.875000X0.875000X-0.875000X0.875000X-0.875000X-0.875000X0.875000X-0.875000X0*%
%TD*%
%TA.AperFunction,HeatsinkPad*%
%ADD18C,0.600000*%
%TD*%
%TA.AperFunction,ComponentPad*%
%ADD19R,1.050000X1.500000*%
%TD*%
%TA.AperFunction,ComponentPad*%
%ADD20O,1.050000X1.500000*%
%TD*%
%TA.AperFunction,ComponentPad*%
%ADD21R,1.700000X1.700000*%
%TD*%
%TA.AperFunction,ComponentPad*%
%ADD22C,1.700000*%
%TD*%
%TA.AperFunction,ComponentPad*%
%ADD23R,2.500000X1.500000*%
%TD*%
%TA.AperFunction,ComponentPad*%
%ADD24O,2.500000X1.500000*%
%TD*%
%TA.AperFunction,ComponentPad*%
%ADD25C,2.000000*%
%TD*%
%TA.AperFunction,ComponentPad*%
%ADD26R,1.500000X1.500000*%
%TD*%
%TA.AperFunction,ViaPad*%
%ADD27C,0.600000*%
%TD*%
%TA.AperFunction,Conductor*%
%ADD28C,0.200000*%
%TD*%
G04 APERTURE END LIST*
D10*
%TO.P,R6,1*%
%TO.N,Net-(D1-A)*%
X61214000Y-47244000D03*
%TO.P,R6,2*%
%TO.N,Net-(U3-IO13)*%
X61214000Y-39624000D03*
%TD*%
D11*
%TO.P,D1,1,K_1*%
%TO.N,GND*%
X56388000Y-44450000D03*
D12*
%TO.P,D1,2,A_2*%
%TO.N,Net-(D1-A)*%
X56388000Y-41910000D03*
%TD*%
D13*
%TO.P,C2,1*%
%TO.N,GND*%
X42700000Y-63500000D03*
%TO.P,C2,2*%
%TO.N,Net-(SW2-A)*%
X42700000Y-58500000D03*
%TD*%
D14*
%TO.P,J1,1*%
%TO.N,Net-(Q1-C)*%
X73660000Y-35800000D03*
%TO.P,J1,2*%
%TO.N,GND*%
X73660000Y-43300000D03*
%TO.P,J1,3*%
%TO.N,Net-(U3-IO16)*%
X73660000Y-50800000D03*
%TO.P,J1,4*%
%TO.N,unconnected-(J1-Pad4)*%
X71160000Y-38300000D03*
%TO.P,J1,5*%
%TO.N,Net-(SW2-C)*%
X71160000Y-48300000D03*
%TO.P,J1,6*%
%TO.N,N/C*%
X83660000Y-48300000D03*
X83660000Y-38300000D03*
%TD*%
D15*
%TO.P,J2,1*%
%TO.N,Net-(SW2-B)*%
X72486000Y-60452000D03*
D16*
%TO.P,J2,2*%
%TO.N,GND*%
X78486000Y-60452000D03*
D17*
%TO.P,J2,3*%
%TO.N,N/C*%
X75486000Y-55752000D03*
%TD*%
D10*
%TO.P,R4,1*%
%TO.N,+3.3V*%
X47498000Y-55372000D03*
%TO.P,R4,2*%
%TO.N,Net-(U3-EN)*%
X47498000Y-47752000D03*
%TD*%
D18*
%TO.P,U3,39,GND_39*%
%TO.N,GND*%
X40892500Y-38100000D03*
X42417500Y-38100000D03*
X40130000Y-37337500D03*
X41655000Y-37337500D03*
X43180000Y-37337500D03*
X40892500Y-36575000D03*
X42417500Y-36575000D03*
X40130000Y-35812500D03*
X41655000Y-35812500D03*
X43180000Y-35812500D03*
X40892500Y-35050000D03*
X42417500Y-35050000D03*
%TD*%
D10*
%TO.P,R1,1*%
%TO.N,+3.3V*%
X44196000Y-55372000D03*
%TO.P,R1,2*%
%TO.N,Net-(Q1-B)*%
X44196000Y-47752000D03*
%TD*%
%TO.P,R3,1*%
%TO.N,Net-(U3-IO16)*%
X37592000Y-47752000D03*
%TO.P,R3,2*%
%TO.N,+3.3V*%
X37592000Y-55372000D03*
%TD*%
D13*
%TO.P,C4,1*%
%TO.N,Net-(U3-IO0)*%
X50800000Y-63500000D03*
%TO.P,C4,2*%
%TO.N,GND*%
X50800000Y-58500000D03*
%TD*%
D10*
%TO.P,R2,1*%
%TO.N,GND*%
X40894000Y-55372000D03*
%TO.P,R2,2*%
%TO.N,Net-(Q1-B)*%
X40894000Y-47752000D03*
%TD*%
D19*
%TO.P,Q1,1,E_1*%
%TO.N,Net-(Q1-E)*%
X55880000Y-50800000D03*
D20*
%TO.P,Q1,2,B_2*%
%TO.N,Net-(Q1-B)*%
X57150000Y-50800000D03*
%TO.P,Q1,3,C_3*%
%TO.N,Net-(Q1-C)*%
X58420000Y-50800000D03*
%TD*%
D21*
%TO.P,J3,1,Pin_1_1*%
%TO.N,GND*%
X47752000Y-22860000D03*
D22*
%TO.P,J3,2,Pin_2_2*%
%TO.N,unconnected-(J3-Pin_2-Pad2)*%
X45212000Y-22860000D03*
%TO.P,J3,3,Pin_3_3*%
%TO.N,+3.3V*%
X42672000Y-22860000D03*
%TO.P,J3,4,Pin_4_4*%
%TO.N,Net-(J3-Pin_4)*%
X40132000Y-22860000D03*
%TO.P,J3,5,Pin_5_5*%
%TO.N,Net-(J3-Pin_5)*%
X37592000Y-22860000D03*
%TD*%
D13*
%TO.P,C3,1*%
%TO.N,GND*%
X46750000Y-63500000D03*
%TO.P,C3,2*%
%TO.N,Net-(U3-EN)*%
X46750000Y-58500000D03*
%TD*%
D23*
%TO.P,U2,1,Vin_1*%
%TO.N,Net-(SW2-A)*%
X83566000Y-28702000D03*
D24*
%TO.P,U2,2,GND_2*%
%TO.N,GND*%
X83566000Y-26162000D03*
%TO.P,U2,3,Vout_3*%
%TO.N,+3.3V*%
X83566000Y-23622000D03*
%TD*%
D25*
%TO.P,SW1,1,1_1*%
%TO.N,Net-(U3-EN)*%
X57000000Y-23440000D03*
X63500000Y-23440000D03*
%TO.P,SW1,2,2_2*%
%TO.N,GND*%
X57000000Y-27940000D03*
X63500000Y-27940000D03*
%TD*%
D13*
%TO.P,C1,1*%
%TO.N,GND*%
X38650000Y-63500000D03*
%TO.P,C1,2*%
%TO.N,+3.3V*%
X38650000Y-58500000D03*
%TD*%
D25*
%TO.P,SW3,1,1_1*%
%TO.N,GND*%
X57000000Y-32548000D03*
X63500000Y-32548000D03*
%TO.P,SW3,2,2_2*%
%TO.N,Net-(U3-IO0)*%
X57000000Y-37048000D03*
X63500000Y-37048000D03*
%TD*%
D10*
%TO.P,R5,1*%
%TO.N,+3.3V*%
X50800000Y-55372000D03*
%TO.P,R5,2*%
%TO.N,Net-(U3-IO0)*%
X50800000Y-47752000D03*
%TD*%
D26*
%TO.P,Minitel   Ext,1,A_1*%
%TO.N,Net-(SW2-A)*%
X60960000Y-60960000D03*
D13*
%TO.P,Minitel   Ext,2,B_2*%
%TO.N,Net-(SW2-B)*%
X63500000Y-60960000D03*
%TO.P,Minitel   Ext,3,C_3*%
%TO.N,Net-(SW2-C)*%
X58420000Y-60960000D03*
%TD*%
D27*
%TO.N,Net-(Q1-E)*%
X59690000Y-30734000D03*
%TO.N,Net-(U3-IO0)*%
X52832000Y-56642000D03*
%TO.N,+3.3V*%
X36576000Y-42672000D03*
%TO.N,Net-(SW2-C)*%
X60706000Y-52070000D03*
%TO.N,Net-(U3-IO16)*%
X58420000Y-55118000D03*
X46482000Y-29464000D03*
%TD*%
%TO.N,Net-(Q1-E)*%
D28*
X55880000Y-49276000D02*
X55880000Y-50800000D01*
X59690000Y-45466000D02*
X55880000Y-49276000D01*
X59690000Y-30734000D02*
X59690000Y-45466000D01*
%TO.N,Net-(U3-IO0)*%
X52832000Y-49784000D02*
X50800000Y-47752000D01*
X52832000Y-56642000D02*
X52832000Y-49784000D01*
X50800000Y-43248000D02*
X57000000Y-37048000D01*
X50800000Y-47752000D02*
X50800000Y-43248000D01*
%TO.N,Net-(U3-EN)*%
X46467800Y-58217800D02*
X46467800Y-48782200D01*
X46750000Y-58500000D02*
X46467800Y-58217800D01*
X46467800Y-48782200D02*
X47498000Y-47752000D01*
X47498000Y-45720000D02*
X47498000Y-47752000D01*
X58359200Y-24799200D02*
X57000000Y-23440000D01*
X58359200Y-33144100D02*
X58359200Y-24799200D01*
X47498000Y-44005300D02*
X58359200Y-33144100D01*
X47498000Y-45720000D02*
X47498000Y-44005300D01*
%TO.N,+3.3V*%
X38100000Y-41148000D02*
X38100000Y-33528000D01*
X38650000Y-58500000D02*
X40560000Y-58500000D01*
X36576000Y-42672000D02*
X38100000Y-41148000D01*
X40560000Y-58500000D02*
X43688000Y-55372000D01*
X38100000Y-33528000D02*
X42672000Y-28956000D01*
X43688000Y-55372000D02*
X44196000Y-55372000D01*
X42672000Y-28956000D02*
X42672000Y-22860000D01*
%TO.N,Net-(SW2-C)*%
X64476000Y-48300000D02*
X71160000Y-48300000D01*
X60706000Y-52070000D02*
X64476000Y-48300000D01*
%TO.N,Net-(U3-IO16)*%
X58420000Y-55118000D02*
X69342000Y-55118000D01*
X46482000Y-29464000D02*
X44450000Y-31496000D01*
X44450000Y-40894000D02*
X44450000Y-31496000D01*
X37592000Y-47752000D02*
X44450000Y-40894000D01*
X69342000Y-55118000D02*
X73660000Y-50800000D01*
%TO.N,Net-(SW2-A)*%
X42700000Y-58500000D02*
X46600000Y-62400000D01*
X59520000Y-62400000D02*
X60960000Y-60960000D01*
X46600000Y-62400000D02*
X59520000Y-62400000D01*
%TO.N,GND*%
X43180000Y-35812500D02*
X43180000Y-36575000D01*
X40892500Y-35050000D02*
X40892500Y-35812500D01*
X51920000Y-22860000D02*
X47752000Y-22860000D01*
X42417500Y-36575000D02*
X43180000Y-36575000D01*
X40892500Y-35812500D02*
X40892500Y-36575000D01*
X43180000Y-36575000D02*
X43180000Y-37337500D01*
X41655000Y-35812500D02*
X40892500Y-35812500D01*
X40892500Y-36575000D02*
X40892500Y-38100000D01*
X57000000Y-27940000D02*
X51920000Y-22860000D01*
X40130000Y-35812500D02*
X40892500Y-35812500D01*
X52737300Y-28285300D02*
X57000000Y-32548000D01*
X46162000Y-28285300D02*
X52737300Y-28285300D01*
X42417500Y-32029800D02*
X46162000Y-28285300D01*
X42417500Y-35050000D02*
X42417500Y-32029800D01*
X63500000Y-27940000D02*
X63500000Y-32548000D01*
X63500000Y-33140000D02*
X73660000Y-43300000D01*
X63500000Y-32548000D02*
X63500000Y-33140000D01*
%TD*%
M02*
