%TF.GenerationSoftware,KiCad,Pcbnew,10.0.6*%
%TF.CreationDate,2026-09-27T20:45:52+02:00*%
%TF.ProjectId,minitel esp32,6d696e69-7465-46c2-9065-737033322e6b,rev?*%
%TF.SameCoordinates,Original*%
%TF.FileFunction,Soldermask,Bot*%
%TF.FilePolarity,Negative*%
%FSLAX46Y46*%
G04 Gerber Fmt 4.6, Leading zero omitted, Abs format (unit mm)*
G04 Created by KiCad (PCBNEW 10.0.6) date 2026-09-27 20:45:52*
%MOMM*%
%LPD*%
G01*
G04 APERTURE LIST*
G04 Aperture macros list*
%AMRoundRect*
0 Rectangle with rounded corners*
0 $1 Rounding radius*
0 $2 $3 $4 $5 $6 $7 $8 $9 X,Y pos of 4 corners*
0 Add a 4 corners polygon primitive as box body*
4,1,4,$2,$3,$4,$5,$6,$7,$8,$9,$2,$3,0*
0 Add four circle primitives for the rounded corners*
1,1,$1+$1,$2,$3*
1,1,$1+$1,$4,$5*
1,1,$1+$1,$6,$7*
1,1,$1+$1,$8,$9*
0 Add four rect primitives between the rounded corners*
20,1,$1+$1,$2,$3,$4,$5,0*
20,1,$1+$1,$4,$5,$6,$7,0*
20,1,$1+$1,$6,$7,$8,$9,0*
20,1,$1+$1,$8,$9,$2,$3,0*%
G04 Aperture macros list end*
%ADD10C,1.400000*%
%ADD11R,1.800000X1.800000*%
%ADD12C,1.800000*%
%ADD13C,1.600000*%
%ADD14C,2.500000*%
%ADD15R,3.500000X3.500000*%
%ADD16RoundRect,0.750000X0.750000X1.000000X-0.750000X1.000000X-0.750000X-1.000000X0.750000X-1.000000X0*%
%ADD17RoundRect,0.875000X0.875000X0.875000X-0.875000X0.875000X-0.875000X-0.875000X0.875000X-0.875000X0*%
%ADD18R,1.050000X1.500000*%
%ADD19O,1.050000X1.500000*%
%ADD20R,1.700000X1.700000*%
%ADD21C,1.700000*%
%ADD22R,2.500000X1.500000*%
%ADD23O,2.500000X1.500000*%
%ADD24C,2.000000*%
%ADD25R,1.500000X1.500000*%
G04 APERTURE END LIST*
D10*
%TO.C,R6*%
X61214000Y-47244000D03*
X61214000Y-39624000D03*
%TD*%
D11*
%TO.C,D1*%
X56388000Y-44450000D03*
D12*
X56388000Y-41910000D03*
%TD*%
D13*
%TO.C,C2*%
X42700000Y-63500000D03*
X42700000Y-58500000D03*
%TD*%
D14*
%TO.C,J1*%
X73660000Y-35800000D03*
X73660000Y-43300000D03*
X73660000Y-50800000D03*
X71160000Y-38300000D03*
X71160000Y-48300000D03*
X83660000Y-48300000D03*
X83660000Y-38300000D03*
%TD*%
D15*
%TO.C,J2*%
X72486000Y-60452000D03*
D16*
X78486000Y-60452000D03*
D17*
X75486000Y-55752000D03*
%TD*%
D10*
%TO.C,R4*%
X47498000Y-55372000D03*
X47498000Y-47752000D03*
%TD*%
%TO.C,R1*%
X44196000Y-55372000D03*
X44196000Y-47752000D03*
%TD*%
%TO.C,R3*%
X37592000Y-47752000D03*
X37592000Y-55372000D03*
%TD*%
D13*
%TO.C,C4*%
X50800000Y-63500000D03*
X50800000Y-58500000D03*
%TD*%
D10*
%TO.C,R2*%
X40894000Y-55372000D03*
X40894000Y-47752000D03*
%TD*%
D18*
%TO.C,Q1*%
X55880000Y-50800000D03*
D19*
X57150000Y-50800000D03*
X58420000Y-50800000D03*
%TD*%
D20*
%TO.C,J3*%
X47752000Y-22860000D03*
D21*
X45212000Y-22860000D03*
X42672000Y-22860000D03*
X40132000Y-22860000D03*
X37592000Y-22860000D03*
%TD*%
D13*
%TO.C,C3*%
X46750000Y-63500000D03*
X46750000Y-58500000D03*
%TD*%
D22*
%TO.C,U2*%
X83566000Y-28702000D03*
D23*
X83566000Y-26162000D03*
X83566000Y-23622000D03*
%TD*%
D24*
%TO.C,SW1*%
X57000000Y-23440000D03*
X63500000Y-23440000D03*
X57000000Y-27940000D03*
X63500000Y-27940000D03*
%TD*%
D13*
%TO.C,C1*%
X38650000Y-63500000D03*
X38650000Y-58500000D03*
%TD*%
D24*
%TO.C,SW3*%
X57000000Y-32548000D03*
X63500000Y-32548000D03*
X57000000Y-37048000D03*
X63500000Y-37048000D03*
%TD*%
D10*
%TO.C,R5*%
X50800000Y-55372000D03*
X50800000Y-47752000D03*
%TD*%
D25*
%TO.C,Minitel   Ext*%
X60960000Y-60960000D03*
D13*
X63500000Y-60960000D03*
X58420000Y-60960000D03*
%TD*%
M02*
