%TF.GenerationSoftware,KiCad,Pcbnew,10.0.6*%
%TF.CreationDate,2026-09-27T20:45:48+02:00*%
%TF.ProjectId,minitel esp32,6d696e69-7465-46c2-9065-737033322e6b,rev?*%
%TF.SameCoordinates,Original*%
%TF.FileFunction,Drillmap*%
%TF.FilePolarity,Positive*%
%FSLAX45Y45*%
G04 Gerber Fmt 4.5, Leading zero omitted, Abs format (unit mm)*
G04 Created by KiCad (PCBNEW 10.0.6) date 2026-09-27 20:45:48*
%MOMM*%
%LPD*%
G01*
G04 APERTURE LIST*
%ADD10C,0.050000*%
%ADD11C,0.200000*%
G04 APERTURE END LIST*
D10*
X3276600Y-1981200D02*
X8661400Y-1981200D01*
X8661400Y-6578600D01*
X3276600Y-6578600D01*
X3276600Y-1981200D01*
D11*
X3534877Y-6892584D02*
X3534877Y-6692584D01*
X3534877Y-6692584D02*
X3582496Y-6692584D01*
X3582496Y-6692584D02*
X3611067Y-6702108D01*
X3611067Y-6702108D02*
X3630115Y-6721155D01*
X3630115Y-6721155D02*
X3639639Y-6740203D01*
X3639639Y-6740203D02*
X3649162Y-6778298D01*
X3649162Y-6778298D02*
X3649162Y-6806869D01*
X3649162Y-6806869D02*
X3639639Y-6844965D01*
X3639639Y-6844965D02*
X3630115Y-6864012D01*
X3630115Y-6864012D02*
X3611067Y-6883060D01*
X3611067Y-6883060D02*
X3582496Y-6892584D01*
X3582496Y-6892584D02*
X3534877Y-6892584D01*
X3734877Y-6892584D02*
X3734877Y-6759250D01*
X3734877Y-6797346D02*
X3744401Y-6778298D01*
X3744401Y-6778298D02*
X3753924Y-6768774D01*
X3753924Y-6768774D02*
X3772972Y-6759250D01*
X3772972Y-6759250D02*
X3792020Y-6759250D01*
X3858686Y-6892584D02*
X3858686Y-6759250D01*
X3858686Y-6692584D02*
X3849162Y-6702108D01*
X3849162Y-6702108D02*
X3858686Y-6711631D01*
X3858686Y-6711631D02*
X3868210Y-6702108D01*
X3868210Y-6702108D02*
X3858686Y-6692584D01*
X3858686Y-6692584D02*
X3858686Y-6711631D01*
X3982496Y-6892584D02*
X3963448Y-6883060D01*
X3963448Y-6883060D02*
X3953924Y-6864012D01*
X3953924Y-6864012D02*
X3953924Y-6692584D01*
X4087258Y-6892584D02*
X4068210Y-6883060D01*
X4068210Y-6883060D02*
X4058686Y-6864012D01*
X4058686Y-6864012D02*
X4058686Y-6692584D01*
X4315829Y-6892584D02*
X4315829Y-6692584D01*
X4315829Y-6692584D02*
X4382496Y-6835441D01*
X4382496Y-6835441D02*
X4449163Y-6692584D01*
X4449163Y-6692584D02*
X4449163Y-6892584D01*
X4630115Y-6892584D02*
X4630115Y-6787822D01*
X4630115Y-6787822D02*
X4620591Y-6768774D01*
X4620591Y-6768774D02*
X4601544Y-6759250D01*
X4601544Y-6759250D02*
X4563448Y-6759250D01*
X4563448Y-6759250D02*
X4544401Y-6768774D01*
X4630115Y-6883060D02*
X4611067Y-6892584D01*
X4611067Y-6892584D02*
X4563448Y-6892584D01*
X4563448Y-6892584D02*
X4544401Y-6883060D01*
X4544401Y-6883060D02*
X4534877Y-6864012D01*
X4534877Y-6864012D02*
X4534877Y-6844965D01*
X4534877Y-6844965D02*
X4544401Y-6825917D01*
X4544401Y-6825917D02*
X4563448Y-6816393D01*
X4563448Y-6816393D02*
X4611067Y-6816393D01*
X4611067Y-6816393D02*
X4630115Y-6806869D01*
X4725353Y-6759250D02*
X4725353Y-6959250D01*
X4725353Y-6768774D02*
X4744401Y-6759250D01*
X4744401Y-6759250D02*
X4782496Y-6759250D01*
X4782496Y-6759250D02*
X4801544Y-6768774D01*
X4801544Y-6768774D02*
X4811067Y-6778298D01*
X4811067Y-6778298D02*
X4820591Y-6797346D01*
X4820591Y-6797346D02*
X4820591Y-6854488D01*
X4820591Y-6854488D02*
X4811067Y-6873536D01*
X4811067Y-6873536D02*
X4801544Y-6883060D01*
X4801544Y-6883060D02*
X4782496Y-6892584D01*
X4782496Y-6892584D02*
X4744401Y-6892584D01*
X4744401Y-6892584D02*
X4725353Y-6883060D01*
X4906305Y-6873536D02*
X4915829Y-6883060D01*
X4915829Y-6883060D02*
X4906305Y-6892584D01*
X4906305Y-6892584D02*
X4896782Y-6883060D01*
X4896782Y-6883060D02*
X4906305Y-6873536D01*
X4906305Y-6873536D02*
X4906305Y-6892584D01*
X4906305Y-6768774D02*
X4915829Y-6778298D01*
X4915829Y-6778298D02*
X4906305Y-6787822D01*
X4906305Y-6787822D02*
X4896782Y-6778298D01*
X4896782Y-6778298D02*
X4906305Y-6768774D01*
X4906305Y-6768774D02*
X4906305Y-6787822D01*
M02*
